<mxfile host="app.diagrams.net" modified="2024-03-07T09:34:32.118Z" agent="Mozilla/5.0 (Windows NT 10.0; Win64; x64) AppleWebKit/537.36 (KHTML, like Gecko) Chrome/122.0.0.0 Safari/537.36 Edg/122.0.0.0" etag="2acz6TZDvky5XsnOawFR" version="24.0.2" type="github">
  <diagram name="第 1 页" id="B5LX5rfYJhsngNCD7u-h">
    <mxGraphModel dx="978" dy="1781" grid="1" gridSize="10" guides="1" tooltips="1" connect="1" arrows="1" fold="1" page="1" pageScale="1" pageWidth="827" pageHeight="1169" math="0" shadow="0">
      <root>
        <mxCell id="0" />
        <mxCell id="1" parent="0" />
        <mxCell id="FaN1qW55NtizGSfyZZEe-50" value="" style="rounded=1;whiteSpace=wrap;html=1;fillColor=#d5e8d4;strokeColor=#82b366;arcSize=12;" vertex="1" parent="1">
          <mxGeometry x="730" y="330" width="890" height="420" as="geometry" />
        </mxCell>
        <mxCell id="FaN1qW55NtizGSfyZZEe-1" value="欣和人员" style="shape=table;startSize=30;container=1;collapsible=0;childLayout=tableLayout;fixedRows=1;rowLines=0;fontStyle=0;strokeColor=default;fontSize=16;" vertex="1" parent="1">
          <mxGeometry x="160" y="110" width="180" height="120" as="geometry" />
        </mxCell>
        <mxCell id="FaN1qW55NtizGSfyZZEe-2" value="" style="shape=tableRow;horizontal=0;startSize=0;swimlaneHead=0;swimlaneBody=0;top=0;left=0;bottom=0;right=0;collapsible=0;dropTarget=0;fillColor=none;points=[[0,0.5],[1,0.5]];portConstraint=eastwest;strokeColor=inherit;fontSize=16;" vertex="1" parent="FaN1qW55NtizGSfyZZEe-1">
          <mxGeometry y="30" width="180" height="30" as="geometry" />
        </mxCell>
        <mxCell id="FaN1qW55NtizGSfyZZEe-3" value="1" style="shape=partialRectangle;html=1;whiteSpace=wrap;connectable=0;fillColor=none;top=0;left=0;bottom=0;right=0;overflow=hidden;pointerEvents=1;strokeColor=inherit;fontSize=16;" vertex="1" parent="FaN1qW55NtizGSfyZZEe-2">
          <mxGeometry width="40" height="30" as="geometry">
            <mxRectangle width="40" height="30" as="alternateBounds" />
          </mxGeometry>
        </mxCell>
        <mxCell id="FaN1qW55NtizGSfyZZEe-4" value="SF=&amp;gt;内部人员" style="shape=partialRectangle;html=1;whiteSpace=wrap;connectable=0;fillColor=none;top=0;left=0;bottom=0;right=0;align=left;spacingLeft=6;overflow=hidden;strokeColor=inherit;fontSize=16;" vertex="1" parent="FaN1qW55NtizGSfyZZEe-2">
          <mxGeometry x="40" width="140" height="30" as="geometry">
            <mxRectangle width="140" height="30" as="alternateBounds" />
          </mxGeometry>
        </mxCell>
        <mxCell id="FaN1qW55NtizGSfyZZEe-5" value="" style="shape=tableRow;horizontal=0;startSize=0;swimlaneHead=0;swimlaneBody=0;top=0;left=0;bottom=0;right=0;collapsible=0;dropTarget=0;fillColor=none;points=[[0,0.5],[1,0.5]];portConstraint=eastwest;strokeColor=inherit;fontSize=16;" vertex="1" parent="FaN1qW55NtizGSfyZZEe-1">
          <mxGeometry y="60" width="180" height="30" as="geometry" />
        </mxCell>
        <mxCell id="FaN1qW55NtizGSfyZZEe-6" value="2" style="shape=partialRectangle;html=1;whiteSpace=wrap;connectable=0;fillColor=none;top=0;left=0;bottom=0;right=0;overflow=hidden;strokeColor=inherit;fontSize=16;" vertex="1" parent="FaN1qW55NtizGSfyZZEe-5">
          <mxGeometry width="40" height="30" as="geometry">
            <mxRectangle width="40" height="30" as="alternateBounds" />
          </mxGeometry>
        </mxCell>
        <mxCell id="FaN1qW55NtizGSfyZZEe-7" value="MHR=&amp;gt;美顾" style="shape=partialRectangle;html=1;whiteSpace=wrap;connectable=0;fillColor=none;top=0;left=0;bottom=0;right=0;align=left;spacingLeft=6;overflow=hidden;strokeColor=inherit;fontSize=16;" vertex="1" parent="FaN1qW55NtizGSfyZZEe-5">
          <mxGeometry x="40" width="140" height="30" as="geometry">
            <mxRectangle width="140" height="30" as="alternateBounds" />
          </mxGeometry>
        </mxCell>
        <mxCell id="FaN1qW55NtizGSfyZZEe-8" value="" style="shape=tableRow;horizontal=0;startSize=0;swimlaneHead=0;swimlaneBody=0;top=0;left=0;bottom=0;right=0;collapsible=0;dropTarget=0;fillColor=none;points=[[0,0.5],[1,0.5]];portConstraint=eastwest;strokeColor=inherit;fontSize=16;" vertex="1" parent="FaN1qW55NtizGSfyZZEe-1">
          <mxGeometry y="90" width="180" height="30" as="geometry" />
        </mxCell>
        <mxCell id="FaN1qW55NtizGSfyZZEe-9" value="3" style="shape=partialRectangle;html=1;whiteSpace=wrap;connectable=0;fillColor=none;top=0;left=0;bottom=0;right=0;overflow=hidden;strokeColor=inherit;fontSize=16;" vertex="1" parent="FaN1qW55NtizGSfyZZEe-8">
          <mxGeometry width="40" height="30" as="geometry">
            <mxRectangle width="40" height="30" as="alternateBounds" />
          </mxGeometry>
        </mxCell>
        <mxCell id="FaN1qW55NtizGSfyZZEe-10" value="经销商" style="shape=partialRectangle;html=1;whiteSpace=wrap;connectable=0;fillColor=none;top=0;left=0;bottom=0;right=0;align=left;spacingLeft=6;overflow=hidden;strokeColor=inherit;fontSize=16;" vertex="1" parent="FaN1qW55NtizGSfyZZEe-8">
          <mxGeometry x="40" width="140" height="30" as="geometry">
            <mxRectangle width="140" height="30" as="alternateBounds" />
          </mxGeometry>
        </mxCell>
        <mxCell id="FaN1qW55NtizGSfyZZEe-33" value="" style="edgeStyle=none;rounded=0;orthogonalLoop=1;jettySize=auto;html=1;" edge="1" parent="1" source="FaN1qW55NtizGSfyZZEe-21" target="FaN1qW55NtizGSfyZZEe-32">
          <mxGeometry relative="1" as="geometry" />
        </mxCell>
        <mxCell id="FaN1qW55NtizGSfyZZEe-34" value="数据同步" style="edgeLabel;html=1;align=center;verticalAlign=middle;resizable=0;points=[];fontStyle=1" vertex="1" connectable="0" parent="FaN1qW55NtizGSfyZZEe-33">
          <mxGeometry x="-0.2154" y="2" relative="1" as="geometry">
            <mxPoint x="-2" y="2" as="offset" />
          </mxGeometry>
        </mxCell>
        <mxCell id="FaN1qW55NtizGSfyZZEe-21" value="SF外采系统&lt;br&gt;（内部人员）" style="rounded=1;whiteSpace=wrap;html=1;fontStyle=1;fillColor=#f8cecc;strokeColor=#b85450;" vertex="1" parent="1">
          <mxGeometry x="780" y="370" width="120" height="60" as="geometry" />
        </mxCell>
        <mxCell id="FaN1qW55NtizGSfyZZEe-38" style="edgeStyle=none;rounded=0;orthogonalLoop=1;jettySize=auto;html=1;entryX=0;entryY=0.5;entryDx=0;entryDy=0;fillColor=#f8cecc;strokeColor=#b85450;exitX=1;exitY=0.5;exitDx=0;exitDy=0;fontStyle=1" edge="1" parent="1" source="FaN1qW55NtizGSfyZZEe-22" target="FaN1qW55NtizGSfyZZEe-35">
          <mxGeometry relative="1" as="geometry">
            <mxPoint x="900" y="670" as="sourcePoint" />
          </mxGeometry>
        </mxCell>
        <mxCell id="FaN1qW55NtizGSfyZZEe-41" style="edgeStyle=none;rounded=0;orthogonalLoop=1;jettySize=auto;html=1;exitX=1;exitY=0.5;exitDx=0;exitDy=0;entryX=0;entryY=0.5;entryDx=0;entryDy=0;fillColor=#d5e8d4;strokeColor=#82b366;fontStyle=1" edge="1" parent="1" source="FaN1qW55NtizGSfyZZEe-22" target="FaN1qW55NtizGSfyZZEe-40">
          <mxGeometry relative="1" as="geometry" />
        </mxCell>
        <mxCell id="FaN1qW55NtizGSfyZZEe-22" value="MHR&lt;br&gt;（美顾人员）" style="rounded=1;whiteSpace=wrap;html=1;fontStyle=1;fillColor=#f8cecc;strokeColor=#b85450;" vertex="1" parent="1">
          <mxGeometry x="780" y="630" width="120" height="60" as="geometry" />
        </mxCell>
        <mxCell id="FaN1qW55NtizGSfyZZEe-24" value="&lt;b&gt;技术中台-企微通讯录&lt;/b&gt;" style="text;html=1;align=center;verticalAlign=middle;whiteSpace=wrap;rounded=0;" vertex="1" parent="1">
          <mxGeometry x="530" y="70" width="130" height="30" as="geometry" />
        </mxCell>
        <mxCell id="FaN1qW55NtizGSfyZZEe-25" value="Dcloud&lt;br&gt;（经销商）" style="rounded=1;whiteSpace=wrap;html=1;fontStyle=1" vertex="1" parent="1">
          <mxGeometry x="380" y="-10" width="120" height="60" as="geometry" />
        </mxCell>
        <mxCell id="FaN1qW55NtizGSfyZZEe-36" value="" style="edgeStyle=none;rounded=0;orthogonalLoop=1;jettySize=auto;html=1;fillColor=#f8cecc;strokeColor=#b85450;fontStyle=1" edge="1" parent="1" source="FaN1qW55NtizGSfyZZEe-32" target="FaN1qW55NtizGSfyZZEe-35">
          <mxGeometry relative="1" as="geometry" />
        </mxCell>
        <mxCell id="FaN1qW55NtizGSfyZZEe-43" style="edgeStyle=none;rounded=0;orthogonalLoop=1;jettySize=auto;html=1;exitX=1;exitY=0.5;exitDx=0;exitDy=0;entryX=0;entryY=0.5;entryDx=0;entryDy=0;fillColor=#d5e8d4;strokeColor=#82b366;fontStyle=1" edge="1" parent="1" source="FaN1qW55NtizGSfyZZEe-32" target="FaN1qW55NtizGSfyZZEe-40">
          <mxGeometry relative="1" as="geometry" />
        </mxCell>
        <mxCell id="FaN1qW55NtizGSfyZZEe-32" value="SF - Orcel数据库" style="whiteSpace=wrap;html=1;rounded=1;fontStyle=1;" vertex="1" parent="1">
          <mxGeometry x="780" y="510" width="120" height="60" as="geometry" />
        </mxCell>
        <mxCell id="FaN1qW55NtizGSfyZZEe-47" value="" style="edgeStyle=none;rounded=0;orthogonalLoop=1;jettySize=auto;html=1;" edge="1" parent="1" source="FaN1qW55NtizGSfyZZEe-35" target="FaN1qW55NtizGSfyZZEe-46">
          <mxGeometry relative="1" as="geometry" />
        </mxCell>
        <mxCell id="FaN1qW55NtizGSfyZZEe-35" value="CRM" style="whiteSpace=wrap;html=1;rounded=1;fontStyle=1;" vertex="1" parent="1">
          <mxGeometry x="1060" y="510" width="120" height="60" as="geometry" />
        </mxCell>
        <mxCell id="FaN1qW55NtizGSfyZZEe-40" value="企业微信&lt;br&gt;通讯录" style="whiteSpace=wrap;html=1;rounded=1;fontStyle=1;" vertex="1" parent="1">
          <mxGeometry x="1060" y="630" width="120" height="60" as="geometry" />
        </mxCell>
        <mxCell id="FaN1qW55NtizGSfyZZEe-49" value="" style="edgeStyle=none;rounded=0;orthogonalLoop=1;jettySize=auto;html=1;" edge="1" parent="1" source="FaN1qW55NtizGSfyZZEe-46" target="FaN1qW55NtizGSfyZZEe-48">
          <mxGeometry relative="1" as="geometry" />
        </mxCell>
        <mxCell id="FaN1qW55NtizGSfyZZEe-46" value="数据湖" style="whiteSpace=wrap;html=1;rounded=1;fontStyle=1;" vertex="1" parent="1">
          <mxGeometry x="1260" y="510" width="120" height="60" as="geometry" />
        </mxCell>
        <mxCell id="FaN1qW55NtizGSfyZZEe-48" value="C4I" style="whiteSpace=wrap;html=1;rounded=1;fontStyle=1;" vertex="1" parent="1">
          <mxGeometry x="1460" y="510" width="120" height="60" as="geometry" />
        </mxCell>
        <mxCell id="FaN1qW55NtizGSfyZZEe-52" value="Dcloud&lt;br&gt;（经销商）" style="rounded=1;whiteSpace=wrap;html=1;fontStyle=1;fillColor=#f8cecc;strokeColor=#b85450;" vertex="1" parent="1">
          <mxGeometry x="1060" y="370" width="120" height="60" as="geometry" />
        </mxCell>
      </root>
    </mxGraphModel>
  </diagram>
</mxfile>
